<svg version="1.1" id="Layer_1" xmlns="http://www.w3.org/2000/svg" x="0" y="0" viewBox="0 0 512 512" xml:space="preserve"><path d="M434.44 110.654C401.18 45.876 334.359.003 255.98 0v101.329c55.478.004 100.593 43.67 100.594 99.15.001 54.805-45.49 102.048-100.594 102.052V512c70.645-73.617 151.953-154.542 187.529-251.428 17.788-48.451 14.47-104.072-9.069-149.918z" fill="#b3b3b3"/><path d="M68.492 260.572C104.066 357.458 185.374 438.383 256.02 512V302.531c-55.104-.004-100.595-47.247-100.594-102.052.001-55.479 45.116-99.146 100.594-99.15V0c-78.379.003-145.2 45.876-178.46 110.654-23.539 45.846-26.857 101.467-9.068 149.918z" fill="#979797"/><circle cx="256" cy="198.773" r="160" fill="#f0f0f0"/><path d="M101.511 240.512c9.258 34.348 29.661 64.118 57.098 85.2v-85.2h-57.098zm140.575 117.652c4.587.394 9.225.608 13.914.608 73.924 0 136.128-50.14 154.489-118.26H242.086v117.652zm168.403-201.13C392.128 88.911 329.924 38.773 256 38.773c-4.689 0-9.327.212-13.914.608v117.652h168.403zm-251.88-85.203c-27.437 21.082-47.84 50.852-57.098 85.202h57.098V71.831z" fill="#0052b4"/><path d="M414.645 177.902H221.217V42.575a158.927 158.927 0 00-41.739 15.652v119.675H97.354a161.505 161.505 0 000 41.739h82.124v119.677a158.935 158.935 0 0041.739 15.65V219.642h193.429a161.458 161.458 0 00-.001-41.74z" fill="#d80027"/><path d="M255.928 21.707c-73.745 0-141.451 47.552-166.61 116.806-25.343 69.773-3.142 149.836 53.974 197.071 57.236 47.338 140.369 53.625 203.978 15.148 63.626-38.49 97.228-114.681 82.271-187.573-14.653-71.388-74.024-128.038-146.069-139.316a178.102 178.102 0 00-27.544-2.136M398.59 263.184c-30.241 67.009-105.732 104.802-177.479 88.399-55.215-12.621-100.384-55.764-115.778-110.195-15.749-55.658 1.328-116.804 43.417-156.425 45.534-42.867 114.172-54.571 171.321-28.799 68.228 30.767 105.971 108.144 87.651 180.844-2.263 8.978-5.352 17.731-9.132 26.176-2.088 4.626 1.542-3.445 0 0" fill="#c7c7c7"/></svg>