<svg version="1.1" id="Capa_1" xmlns="http://www.w3.org/2000/svg" x="0" y="0" width="35.404" height="35.404" xml:space="preserve"><path d="M32.797 24.097l1.242.718-2.01 3.481-1.239-.716-3.179.847-.85-3.176-.349-.198.528 1.968a.524.524 0 01-.369.637.529.529 0 01-.639-.369l-1.179-4.397 2.899 1.674.694 2.586 1.877-.501-.173-.695 1.596.916.968-1.677-1.728-.999.812-.162-.493-1.838-2.585.696-2.898-1.675 4.395-1.177a.527.527 0 01.637.369.52.52 0 01-.368.637l-1.965.526.346.2 3.176-.852.854 3.177zM18.671 11.734l5.863-5.865-2.146 8.008-3.717 2.148v-4.291zm1.042 2.487l1.782-1.027 1.027-3.837-2.81 2.81v2.054zm-5.459-9.175a.52.52 0 00-.736.737l3.218 3.216V5.652L14.842 3.76l1.368-1.369.526.527V1.042h1.936l.004 1.87.521-.521 1.367 1.369-1.893 1.892v3.347l3.217-3.216a.52.52 0 00-.736-.737l-1.438 1.438v-.402l2.323-2.322-2.323-2.327V0h-4.018v1.433L13.37 3.76l2.326 2.322v.401l-1.442-1.437zm9.1 10.512l8.01 2.146-8.012 2.146-3.713-2.146 3.715-2.146zm.148 1.117l-1.78 1.028 1.78 1.026 3.836-1.026-3.836-1.028zm4.848-8.421l1.985.531v.507l1.316-.759.966 1.676-1.646.955.738.183-.498 1.863-2.589-.694-2.896 1.671 4.395 1.178a.52.52 0 10.27-1.005l-1.966-.527.346-.199 3.178.853.851-3.181 1.24-.714-2.01-3.483-1.242.718-3.175-.852-.851 3.177-.346.198.525-1.963a.522.522 0 00-.368-.639.53.53 0 00-.637.369l-1.178 4.397 2.896-1.674.696-2.586zM7.057 27.152l-1.878-.501.175-.703-1.598.924-.967-1.677 1.724-1.001-.808-.16.492-1.838 2.586.696 2.898-1.675-4.394-1.177a.53.53 0 00-.637.369.52.52 0 00.369.637l1.965.526-.347.2-3.175-.852-.85 3.177-1.242.718 2.009 3.481 1.239-.717 3.178.848.851-3.176.347-.199-.528 1.966a.521.521 0 001.007.271l1.179-4.395-2.898 1.67-.697 2.588zm9.678-3.482l-5.864 5.865 2.148-8.008 3.717-2.148-.001 4.291zm-1.042-2.486l-1.78 1.027-1.028 3.837 2.81-2.81v-2.055h-.002zm5.459 9.177a.52.52 0 00.736-.737l-3.219-3.216v3.345l1.894 1.893-1.365 1.369-.527-.525v1.874h-1.934l-.006-1.869-.521.521-1.368-1.368 1.894-1.894v-3.347l-3.218 3.218a.522.522 0 00.737.737l1.44-1.44v.402l-2.326 2.323 2.326 2.326v1.432h4.018v-1.432l2.325-2.326-2.325-2.323v-.4l1.439 1.437zM3.458 14.486l3.178-.853.346.199-1.967.527a.52.52 0 10.269 1.005l4.396-1.178-2.897-1.671-2.589.694-.499-1.864.747-.186-1.653-.952.967-1.675 1.314.756v-.502l1.985-.534.695 2.586 2.898 1.676L9.47 8.115a.528.528 0 00-.638-.369.523.523 0 00-.369.639l.526 1.963-.345-.198-.852-3.176-3.175.851-1.242-.718-2.009 3.483 1.24.714.852 3.182zm18.928 7.039l2.146 8.006-5.861-5.861v-4.291l3.715 2.146zm.133 4.521l-1.025-3.835-1.78-1.027v2.055l2.805 2.807zM12.052 15.558l3.715 2.146-3.715 2.146-8.009-2.146 8.009-2.146zm1.633 2.145l-1.779-1.028-3.836 1.028 3.835 1.026 1.78-1.026zm-.666-3.823l-2.148-8.008 5.864 5.866v4.291l-3.716-2.149zm-.134-4.522l1.028 3.837 1.78 1.027v-2.056l-2.808-2.808z"/></svg>