<svg version="1.1" id="Capa_1" xmlns="http://www.w3.org/2000/svg" x="0" y="0" width="35.545" height="35.545" xml:space="preserve"><path d="M18.737 19.449v4.291l5.858 5.861-2.144-8.007-3.714-2.145zm1.041 3.859v-2.056l1.778 1.027 1.027 3.835-2.805-2.806zm13.084.859l1.241.719-.918 1.588a.252.252 0 01-.022.186.23.23 0 01-.146.108l-.921 1.599-1.24-.717-3.179.845-.85-3.174-.348-.2.527 1.968a.523.523 0 01-.368.639.53.53 0 01-.637-.369l-1.178-4.397 2.899 1.675.691 2.586 1.88-.5-.175-.696 1.597.916.354-.612-8.193-4.732 1.542 5.768a.258.258 0 01-.183.318.26.26 0 01-.067.011.259.259 0 01-.25-.194l-1.681-6.271-5.207-3.007v6.014l4.586 4.589a.257.257 0 010 .369c-.051.051-.115.075-.183.075s-.135-.024-.186-.075l-4.22-4.222v9.459h.708V32.38l.56.673 1.333-1.333-1.893-1.894v-3.345l3.217 3.217a.52.52 0 01-.736.736l-1.439-1.438v.398l2.324 2.325-2.324 2.326v1.43h-1.833a.249.249 0 01-.176.072.249.249 0 01-.176-.072h-1.834v-1.43l-2.324-2.326 2.324-2.325v-.4l-1.438 1.44a.52.52 0 01-.736-.736l3.216-3.219v3.347l-1.893 1.894 1.333 1.333.556-.668.004 2.05h.708v-9.459l-4.22 4.22a.257.257 0 01-.369 0 .26.26 0 010-.368l4.588-4.588v-6.013l-5.209 3.007-1.68 6.27a.259.259 0 01-.25.195.223.223 0 01-.066-.011.26.26 0 01-.186-.319l1.543-5.764-8.19 4.729.354.614 1.599-.924-.177.702 1.878.502.693-2.588 2.899-1.67-1.182 4.395a.517.517 0 01-.637.369.524.524 0 01-.369-.638l.528-1.966-.345.198-.85 3.173-3.178-.848-1.239.717-.922-1.598a.267.267 0 01-.148-.108.259.259 0 01-.023-.187l-.917-1.587 1.242-.72.849-3.175 3.177.851.347-.199-1.966-.525a.52.52 0 11.269-1.007l4.395 1.176-2.897 1.675-2.584-.693-.459 1.717h1.259l-2.207 1.279.352.615 8.192-4.73-5.765-1.544a.263.263 0 01-.186-.321.266.266 0 01.32-.185l6.269 1.679 5.208-3.008-5.209-3.008-6.268 1.679a.259.259 0 01-.318-.186.258.258 0 01.185-.318l5.762-1.545-8.189-4.728-.352.612 1.652.952-.747.185.499 1.864 2.589-.694 2.897 1.671-4.396 1.178a.519.519 0 11-.27-1.005l1.967-.527-.345-.199-3.179.852-.852-3.18-1.24-.715.917-1.588a.27.27 0 01.024-.189.261.261 0 01.153-.115l.918-1.589 1.24.717 3.176-.85.853 3.176.345.199-.528-1.964a.52.52 0 111.007-.27l1.178 4.397-2.899-1.675-.693-2.584-1.985.533v.502l-1.316-.755-.352.613 8.189 4.729-1.542-5.766a.26.26 0 01.185-.318.26.26 0 01.319.184l1.68 6.27 5.209 3.007v-6.015l-4.586-4.588a.257.257 0 010-.369.259.259 0 01.369 0l4.22 4.221V1.114h-.707v2.058l-.561-.673-1.333 1.334 1.894 1.893V9.07L13.59 5.853a.52.52 0 01.737-.736l1.439 1.438v-.399L13.44 3.833l2.325-2.327V.073h1.833c.046-.045.108-.073.176-.073s.13.028.176.073h1.834v1.432l2.325 2.327-2.325 2.324v.399l1.438-1.438a.52.52 0 01.736.736L18.742 9.07V5.724l1.893-1.893-1.333-1.334-.556.668-.004-2.051h-.708v9.458l4.221-4.221a.26.26 0 11.369.369l-4.589 4.588v6.015l5.209-3.007 1.681-6.27a.262.262 0 01.319-.185.26.26 0 01.185.319l-1.544 5.766 8.19-4.729-.353-.612-1.314.76v-.51l-1.985-.531-.693 2.583-2.899 1.676 1.179-4.398a.528.528 0 01.638-.369.52.52 0 01.37.637l-.527 1.964.344-.198.853-3.177 3.176.852 1.241-.717.917 1.59c.061.02.114.055.151.113.032.06.038.125.024.188l.917 1.59-1.241.714-.849 3.18-3.182-.852-.344.198 1.967.527a.521.521 0 01-.135 1.023.489.489 0 01-.135-.019l-4.396-1.178 2.897-1.672 2.589.694.499-1.861-.738-.186 1.645-.952-.354-.613-8.188 4.729 5.762 1.543a.261.261 0 01-.067.514.196.196 0 01-.064-.011l-6.269-1.678-5.21 3.009 5.208 3.007 6.271-1.677a.26.26 0 11.133.503l-5.764 1.545 8.192 4.729.353-.612-2.214-1.28h1.268l-.459-1.718-2.584.696-2.899-1.675 4.396-1.176a.526.526 0 01.638.368.521.521 0 01-.369.637l-1.967.525.35.199 3.176-.851.832 3.18zm-13.159-6.394l3.715 2.146 8.008-2.146-8.008-2.145-3.715 2.145zm7.7 0l-3.839 1.028-1.778-1.028 1.78-1.027 3.837 1.027zm-10.604 1.676l-3.715 2.147-2.148 8.008 5.863-5.861v-4.294zm-1.041 3.859l-2.808 2.809 1.028-3.837 1.781-1.027-.001 2.055zm.076-5.535l-3.715-2.145-8.009 2.145 8.009 2.146 3.715-2.146zm-7.701 0l3.838-1.027 1.78 1.027-1.78 1.028-3.838-1.028zm10.604-1.676l3.717-2.147 2.147-8.008-5.864 5.866v4.289zm1.041-3.858l2.81-2.809-1.028 3.836-1.781 1.028v-2.055zm-2.979 3.86v-4.291l-5.863-5.865 2.148 8.009 3.715 2.147zm-1.041-3.86v2.057l-1.78-1.027L12.95 9.43l2.808 2.809z"/></svg>